<svg width="24" height="20" viewBox="0 0 24 20" fill="none" xmlns="http://www.w3.org/2000/svg">
<path fill-rule="evenodd" clip-rule="evenodd" d="M11.9038 0C5.33072 0 0 4.59044 0 10.2534C0 14.7828 3.41081 18.626 8.1415 19.9824C8.73712 20.0763 8.95419 19.7596 8.95419 19.4877C8.95419 19.2441 8.94383 18.5996 8.93761 17.7442C5.6262 18.3635 4.92753 16.3696 4.92753 16.3696C4.38598 15.185 3.60545 14.8696 3.60545 14.8696C2.52454 14.2339 3.68728 14.2465 3.68728 14.2465C4.88218 14.3189 5.5107 15.3033 5.5107 15.3033C6.57261 16.8699 8.29737 16.4174 8.97559 16.1549C9.08373 15.4928 9.39143 15.0408 9.73127 14.7846C7.08785 14.5253 4.30848 13.646 4.30848 9.71712C4.30848 8.59738 4.77257 7.68281 5.53409 6.9659C5.41124 6.70656 5.00278 5.66421 5.65114 4.2524C5.65114 4.2524 6.65018 3.97674 8.92454 5.30295C9.8739 5.07572 10.8927 4.96242 11.9049 4.95801C12.9164 4.96158 13.9344 5.07577 14.8852 5.30295C17.1581 3.97674 18.1557 4.2524 18.1557 4.2524C18.8054 5.66421 18.3969 6.70656 18.2748 6.9659C19.0378 7.68281 19.4982 8.59738 19.4982 9.71712C19.4982 13.6561 16.7145 14.5228 14.063 14.7764C14.4898 15.093 14.8706 15.7187 14.8706 16.6755C14.8706 18.0457 14.8561 19.1516 14.8561 19.4877C14.8561 19.7621 15.0709 20.0813 15.6746 19.9812C20.4017 18.6223 23.8095 14.7821 23.8095 10.2534C23.8095 4.59044 18.4788 0 11.9035 0" fill="#797979"/>
</svg>
