<svg width="24" height="20" viewBox="0 0 24 20" fill="none" xmlns="http://www.w3.org/2000/svg">
<g clip-path="url(#clip0_22_113)">
<path fill-rule="evenodd" clip-rule="evenodd" d="M11.9048 0C18.4762 0 23.8095 4.48 23.8095 10C23.8095 15.52 18.4762 20 11.9048 20C5.33333 20 0 15.52 0 10C0 4.48 5.33333 0 11.9048 0ZM17.8651 6.01333L6.30952 5.98667L12.0873 9.84L17.8651 6.01333ZM10.7222 10.9133L5.6746 7.58V13.9133H18.1587V7.71333L13.4762 10.9267C11.8889 12.0133 12.3651 11.9933 10.7222 10.9133ZM5.73809 4.77333H18.1905C19.1984 4.77333 20.0159 5.46667 20.0159 6.30667V13.64C20.0159 14.4867 19.1905 15.1733 18.1905 15.1733H5.73809C4.73016 15.1733 3.9127 14.48 3.9127 13.64V6.30667C3.9127 5.46 4.73809 4.77333 5.73809 4.77333Z" fill="#797979"/>
</g>
<defs>
<clipPath id="clip0_22_113">
<rect width="23.8095" height="20" fill="white"/>
</clipPath>
</defs>
</svg>
