<svg width="24" height="20" viewBox="0 0 24 20" fill="none" xmlns="http://www.w3.org/2000/svg">
<path d="M20.5919 4.49609L18.1156 2.41797C17.9409 2.27059 17.7333 2.15366 17.5046 2.07389C17.276 1.99412 17.0308 1.95308 16.7833 1.95313C16.2787 1.95313 15.8044 2.11914 15.4486 2.41797L12.7839 4.65625C12.6085 4.80298 12.4693 4.97738 12.3743 5.16944C12.2793 5.3615 12.2305 5.56743 12.2305 5.77539C12.2305 6.19922 12.4282 6.59766 12.7839 6.89648L14.7324 8.5332C14.2763 9.37766 13.6422 10.1459 12.8607 10.8008C12.0811 11.4589 11.1666 11.9935 10.1611 12.3789L8.21259 10.7422C8.03791 10.5948 7.83028 10.4779 7.60164 10.3981C7.37299 10.3183 7.12784 10.2773 6.88025 10.2773C6.37569 10.2773 5.90135 10.4434 5.54559 10.7422L2.87859 12.9785C2.70293 13.1255 2.5636 13.3002 2.46862 13.4926C2.37365 13.685 2.32491 13.8913 2.3252 14.0996C2.3252 14.5234 2.52284 14.9219 2.87859 15.2207L5.35028 17.2969C5.91762 17.7754 6.70121 18.0469 7.50573 18.0469C7.67547 18.0469 7.83823 18.0352 7.99867 18.0117C11.133 17.5781 14.2418 16.1777 16.7507 14.0723C19.2573 11.9688 20.9221 9.35938 21.4453 6.71875C21.6034 5.91211 21.2848 5.08203 20.5919 4.49609Z" fill="#797979"/>
</svg>
