<svg width="126" height="98" viewBox="0 0 126 98" fill="none" xmlns="http://www.w3.org/2000/svg">
<g id="logo">
<rect id="Rectangle 9" width="124.502" height="93.1785" rx="46.5892" fill="#232AC1"/>
<path id="H" d="M33.4111 62.3533V29.5664H37.3814V44.1668H54.8635V29.5664H58.8338V62.3533H54.8635V47.6888H37.3814V62.3533H33.4111Z" fill="#D9D9D9"/>
<path id="C" d="M83.3533 39.8829H79.383C79.1482 38.7409 78.7373 37.7376 78.1503 36.8731C77.5739 36.0086 76.8695 35.2829 76.0371 34.6959C75.2152 34.0982 74.3027 33.6499 73.2995 33.3511C72.2962 33.0523 71.2503 32.9028 70.1617 32.9028C68.1765 32.9028 66.3781 33.4045 64.7665 34.4077C63.1656 35.411 61.8902 36.8891 60.9403 38.8423C60.0011 40.7954 59.5315 43.1915 59.5315 46.0304C59.5315 48.8694 60.0011 51.2654 60.9403 53.2186C61.8902 55.1717 63.1656 56.6499 64.7665 57.6531C66.3781 58.6564 68.1765 59.158 70.1617 59.158C71.2503 59.158 72.2962 59.0086 73.2995 58.7097C74.3027 58.4109 75.2152 57.968 76.0371 57.381C76.8695 56.7833 77.5739 56.0522 78.1503 55.1877C78.7373 54.3125 79.1482 53.3093 79.383 52.178H83.3533C83.0544 53.8536 82.5101 55.3531 81.7203 56.6766C80.9305 58 79.9486 59.126 78.7746 60.0545C77.6006 60.9724 76.2825 61.6715 74.8204 62.1517C73.3688 62.632 71.816 62.8721 70.1617 62.8721C67.3654 62.8721 64.8786 62.1891 62.7014 60.823C60.5241 59.4568 58.8111 57.5144 57.5624 54.9956C56.3137 52.4768 55.6893 49.4884 55.6893 46.0304C55.6893 42.5724 56.3137 39.584 57.5624 37.0652C58.8111 34.5465 60.5241 32.604 62.7014 31.2379C64.8786 29.8718 67.3654 29.1887 70.1617 29.1887C71.816 29.1887 73.3688 29.4288 74.8204 29.9091C76.2825 30.3894 77.6006 31.0938 78.7746 32.0223C79.9486 32.9402 80.9305 34.0608 81.7203 35.3843C82.5101 36.697 83.0544 38.1966 83.3533 39.8829Z" fill="white"/>
<g id="HELLO CHAT">
<path d="M3.78836 92.539V78.0507H5.5428V84.5026H13.268V78.0507H15.0224V92.539H13.268V86.0589H5.5428V92.539H3.78836ZM18.5349 92.539V78.0507H27.2788V79.6071H20.2893V84.5026H26.826V86.0589H20.2893V90.9827H27.392V92.539H18.5349ZM30.441 92.539V78.0507H32.1954V90.9827H38.9302V92.539H30.441ZM41.6468 92.539V78.0507H43.4012V90.9827H50.136V92.539H41.6468ZM64.5129 85.2949C64.5129 86.8229 64.237 88.1435 63.6852 89.2565C63.1334 90.3696 62.3764 91.2279 61.4143 91.8316C60.4522 92.4353 59.3533 92.7371 58.1177 92.7371C56.882 92.7371 55.7831 92.4353 54.821 91.8316C53.8589 91.2279 53.1019 90.3696 52.5501 89.2565C51.9983 88.1435 51.7224 86.8229 51.7224 85.2949C51.7224 83.7668 51.9983 82.4463 52.5501 81.3332C53.1019 80.2202 53.8589 79.3619 54.821 78.7582C55.7831 78.1545 56.882 77.8527 58.1177 77.8527C59.3533 77.8527 60.4522 78.1545 61.4143 78.7582C62.3764 79.3619 63.1334 80.2202 63.6852 81.3332C64.237 82.4463 64.5129 83.7668 64.5129 85.2949ZM62.815 85.2949C62.815 84.0404 62.6052 82.9816 62.1854 82.1185C61.7704 81.2554 61.2068 80.6022 60.4947 80.1589C59.7872 79.7156 58.9949 79.4939 58.1177 79.4939C57.2404 79.4939 56.4458 79.7156 55.7336 80.1589C55.0262 80.6022 54.4626 81.2554 54.0428 82.1185C53.6278 82.9816 53.4203 84.0404 53.4203 85.2949C53.4203 86.5494 53.6278 87.6082 54.0428 88.4713C54.4626 89.3343 55.0262 89.9875 55.7336 90.4309C56.4458 90.8742 57.2404 91.0959 58.1177 91.0959C58.9949 91.0959 59.7872 90.8742 60.4947 90.4309C61.2068 89.9875 61.7704 89.3343 62.1854 88.4713C62.6052 87.6082 62.815 86.5494 62.815 85.2949ZM84.7243 82.5783H82.9699C82.8661 82.0737 82.6846 81.6304 82.4252 81.2484C82.1705 80.8663 81.8592 80.5456 81.4914 80.2862C81.1282 80.0221 80.725 79.824 80.2816 79.692C79.8383 79.5599 79.3761 79.4939 78.8951 79.4939C78.0178 79.4939 77.2232 79.7156 76.511 80.1589C75.8036 80.6022 75.24 81.2554 74.8202 82.1185C74.4052 82.9816 74.1977 84.0404 74.1977 85.2949C74.1977 86.5494 74.4052 87.6082 74.8202 88.4713C75.24 89.3343 75.8036 89.9875 76.511 90.4309C77.2232 90.8742 78.0178 91.0959 78.8951 91.0959C79.3761 91.0959 79.8383 91.0298 80.2816 90.8978C80.725 90.7657 81.1282 90.57 81.4914 90.3106C81.8592 90.0465 82.1705 89.7234 82.4252 89.3414C82.6846 88.9547 82.8661 88.5114 82.9699 88.0114H84.7243C84.5923 88.7519 84.3518 89.4145 84.0028 89.9993C83.6538 90.5842 83.2199 91.0817 82.7011 91.492C82.1823 91.8976 81.5998 92.2065 80.9537 92.4188C80.3123 92.631 79.6261 92.7371 78.8951 92.7371C77.6594 92.7371 76.5605 92.4353 75.5984 91.8316C74.6363 91.2279 73.8793 90.3696 73.3275 89.2565C72.7757 88.1435 72.4998 86.8229 72.4998 85.2949C72.4998 83.7668 72.7757 82.4463 73.3275 81.3332C73.8793 80.2202 74.6363 79.3619 75.5984 78.7582C76.5605 78.1545 77.6594 77.8527 78.8951 77.8527C79.6261 77.8527 80.3123 77.9588 80.9537 78.171C81.5998 78.3832 82.1823 78.6945 82.7011 79.1048C83.2199 79.5104 83.6538 80.0056 84.0028 80.5904C84.3518 81.1705 84.5923 81.8332 84.7243 82.5783ZM87.5594 92.539V78.0507H89.3138V84.5026H97.039V78.0507H98.7935V92.539H97.039V86.0589H89.3138V92.539H87.5594ZM102.9 92.539H101.061L106.381 78.0507H108.192L113.512 92.539H111.672L107.343 80.3428H107.23L102.9 92.539ZM103.579 86.8795H110.993V88.4359H103.579V86.8795ZM113.284 79.6071V78.0507H124.15V79.6071H119.594V92.539H117.839V79.6071H113.284Z" fill="#34CDBB"/>
<path d="M3.78836 92.539H2.94169V93.3857H3.78836V92.539ZM3.78836 78.0507V77.2041H2.94169V78.0507H3.78836ZM5.5428 78.0507H6.38947V77.2041H5.5428V78.0507ZM5.5428 84.5026H4.69613V85.3492H5.5428V84.5026ZM13.268 84.5026V85.3492H14.1147V84.5026H13.268ZM13.268 78.0507V77.2041H12.4213V78.0507H13.268ZM15.0224 78.0507H15.8691V77.2041H15.0224V78.0507ZM15.0224 92.539V93.3857H15.8691V92.539H15.0224ZM13.268 92.539H12.4213V93.3857H13.268V92.539ZM13.268 86.0589H14.1147V85.2123H13.268V86.0589ZM5.5428 86.0589V85.2123H4.69613V86.0589H5.5428ZM5.5428 92.539V93.3857H6.38947V92.539H5.5428ZM4.63502 92.539V78.0507H2.94169V92.539H4.63502ZM3.78836 78.8974H5.5428V77.2041H3.78836V78.8974ZM4.69613 78.0507V84.5026H6.38947V78.0507H4.69613ZM5.5428 85.3492H13.268V83.6559H5.5428V85.3492ZM14.1147 84.5026V78.0507H12.4213V84.5026H14.1147ZM13.268 78.8974H15.0224V77.2041H13.268V78.8974ZM14.1758 78.0507V92.539H15.8691V78.0507H14.1758ZM15.0224 91.6924H13.268V93.3857H15.0224V91.6924ZM14.1147 92.539V86.0589H12.4213V92.539H14.1147ZM13.268 85.2123H5.5428V86.9056H13.268V85.2123ZM4.69613 86.0589V92.539H6.38947V86.0589H4.69613ZM5.5428 91.6924H3.78836V93.3857H5.5428V91.6924ZM18.5349 92.539H17.6882V93.3857H18.5349V92.539ZM18.5349 78.0507V77.2041H17.6882V78.0507H18.5349ZM27.2788 78.0507H28.1254V77.2041H27.2788V78.0507ZM27.2788 79.6071V80.4538H28.1254V79.6071H27.2788ZM20.2893 79.6071V78.7604H19.4426V79.6071H20.2893ZM20.2893 84.5026H19.4426V85.3492H20.2893V84.5026ZM26.826 84.5026H27.6727V83.6559H26.826V84.5026ZM26.826 86.0589V86.9056H27.6727V86.0589H26.826ZM20.2893 86.0589V85.2123H19.4426V86.0589H20.2893ZM20.2893 90.9827H19.4426V91.8293H20.2893V90.9827ZM27.392 90.9827H28.2386V90.136H27.392V90.9827ZM27.392 92.539V93.3857H28.2386V92.539H27.392ZM19.3815 92.539V78.0507H17.6882V92.539H19.3815ZM18.5349 78.8974H27.2788V77.2041H18.5349V78.8974ZM26.4321 78.0507V79.6071H28.1254V78.0507H26.4321ZM27.2788 78.7604H20.2893V80.4538H27.2788V78.7604ZM19.4426 79.6071V84.5026H21.136V79.6071H19.4426ZM20.2893 85.3492H26.826V83.6559H20.2893V85.3492ZM25.9793 84.5026V86.0589H27.6727V84.5026H25.9793ZM26.826 85.2123H20.2893V86.9056H26.826V85.2123ZM19.4426 86.0589V90.9827H21.136V86.0589H19.4426ZM20.2893 91.8293H27.392V90.136H20.2893V91.8293ZM26.5453 90.9827V92.539H28.2386V90.9827H26.5453ZM27.392 91.6924H18.5349V93.3857H27.392V91.6924ZM30.441 92.539H29.5943V93.3857H30.441V92.539ZM30.441 78.0507V77.2041H29.5943V78.0507H30.441ZM32.1954 78.0507H33.0421V77.2041H32.1954V78.0507ZM32.1954 90.9827H31.3488V91.8293H32.1954V90.9827ZM38.9302 90.9827H39.7769V90.136H38.9302V90.9827ZM38.9302 92.539V93.3857H39.7769V92.539H38.9302ZM31.2877 92.539V78.0507H29.5943V92.539H31.2877ZM30.441 78.8974H32.1954V77.2041H30.441V78.8974ZM31.3488 78.0507V90.9827H33.0421V78.0507H31.3488ZM32.1954 91.8293H38.9302V90.136H32.1954V91.8293ZM38.0836 90.9827V92.539H39.7769V90.9827H38.0836ZM38.9302 91.6924H30.441V93.3857H38.9302V91.6924ZM41.6468 92.539H40.8001V93.3857H41.6468V92.539ZM41.6468 78.0507V77.2041H40.8001V78.0507H41.6468ZM43.4012 78.0507H44.2479V77.2041H43.4012V78.0507ZM43.4012 90.9827H42.5546V91.8293H43.4012V90.9827ZM50.136 90.9827H50.9827V90.136H50.136V90.9827ZM50.136 92.539V93.3857H50.9827V92.539H50.136ZM42.4935 92.539V78.0507H40.8001V92.539H42.4935ZM41.6468 78.8974H43.4012V77.2041H41.6468V78.8974ZM42.5546 78.0507V90.9827H44.2479V78.0507H42.5546ZM43.4012 91.8293H50.136V90.136H43.4012V91.8293ZM49.2894 90.9827V92.539H50.9827V90.9827H49.2894ZM50.136 91.6924H41.6468V93.3857H50.136V91.6924ZM63.6852 89.2565L62.9266 88.8805L63.6852 89.2565ZM61.4143 91.8316L61.8643 92.5488L61.4143 91.8316ZM54.821 91.8316L54.371 92.5488L54.821 91.8316ZM52.5501 89.2565L53.3087 88.8805L52.5501 89.2565ZM52.5501 81.3332L51.7916 80.9572L52.5501 81.3332ZM61.4143 78.7582L61.8643 78.041L61.4143 78.7582ZM63.6852 81.3332L62.9266 81.7093V81.7093L63.6852 81.3332ZM62.1854 82.1185L61.4224 82.4854L61.424 82.4888L62.1854 82.1185ZM60.4947 80.1589L60.0451 80.8763L60.0472 80.8777L60.4947 80.1589ZM55.7336 80.1589L55.2862 79.4401L55.284 79.4415L55.7336 80.1589ZM54.0428 82.1185L53.2814 81.7482L53.2798 81.7516L54.0428 82.1185ZM54.0428 88.4713L53.2798 88.8382L53.2814 88.8416L54.0428 88.4713ZM55.7336 90.4309L55.284 91.1483L55.2862 91.1496L55.7336 90.4309ZM60.4947 90.4309L60.0472 89.7121L60.0451 89.7134L60.4947 90.4309ZM62.1854 88.4713L61.424 88.101L61.4224 88.1044L62.1854 88.4713ZM63.6662 85.2949C63.6662 86.7219 63.4087 87.9081 62.9266 88.8805L64.4438 89.6326C65.0653 88.3789 65.3596 86.924 65.3596 85.2949H63.6662ZM62.9266 88.8805C62.4375 89.8671 61.7818 90.6015 60.9643 91.1144L61.8643 92.5488C62.9711 91.8543 63.8293 90.8721 64.4438 89.6326L62.9266 88.8805ZM60.9643 91.1144C60.1489 91.6261 59.2087 91.8904 58.1177 91.8904V93.5838C59.498 93.5838 60.7556 93.2445 61.8643 92.5488L60.9643 91.1144ZM58.1177 91.8904C57.0267 91.8904 56.0865 91.6261 55.271 91.1144L54.371 92.5488C55.4798 93.2445 56.7374 93.5838 58.1177 93.5838V91.8904ZM55.271 91.1144C54.4535 90.6015 53.7978 89.8671 53.3087 88.8805L51.7916 89.6326C52.4061 90.8721 53.2643 91.8543 54.371 92.5488L55.271 91.1144ZM53.3087 88.8805C52.8267 87.9081 52.5691 86.7219 52.5691 85.2949H50.8758C50.8758 86.924 51.17 88.3789 51.7916 89.6326L53.3087 88.8805ZM52.5691 85.2949C52.5691 83.8678 52.8267 82.6817 53.3087 81.7093L51.7916 80.9572C51.17 82.2109 50.8758 83.6658 50.8758 85.2949H52.5691ZM53.3087 81.7093C53.7978 80.7227 54.4535 79.9883 55.271 79.4754L54.371 78.041C53.2643 78.7354 52.4061 79.7177 51.7916 80.9572L53.3087 81.7093ZM55.271 79.4754C56.0865 78.9637 57.0267 78.6993 58.1177 78.6993V77.006C56.7374 77.006 55.4798 77.3453 54.371 78.041L55.271 79.4754ZM58.1177 78.6993C59.2087 78.6993 60.1489 78.9637 60.9643 79.4754L61.8643 78.041C60.7556 77.3453 59.498 77.006 58.1177 77.006V78.6993ZM60.9643 79.4754C61.7818 79.9883 62.4375 80.7227 62.9266 81.7093L64.4438 80.9572C63.8293 79.7177 62.9711 78.7354 61.8643 78.041L60.9643 79.4754ZM62.9266 81.7093C63.4087 82.6817 63.6662 83.8678 63.6662 85.2949H65.3596C65.3596 83.6658 65.0653 82.2109 64.4438 80.9572L62.9266 81.7093ZM63.6617 85.2949C63.6617 83.9499 63.4372 82.7565 62.9468 81.7482L61.424 82.4888C61.7732 83.2067 61.9684 84.1308 61.9684 85.2949H63.6617ZM62.9485 81.7516C62.4739 80.7647 61.8093 79.98 60.9421 79.4401L60.0472 80.8777C60.6044 81.2245 61.0669 81.7462 61.4224 82.4854L62.9485 81.7516ZM60.9442 79.4415C60.0951 78.9093 59.1455 78.6472 58.1177 78.6472V80.3406C58.8443 80.3406 59.4794 80.5218 60.0451 80.8763L60.9442 79.4415ZM58.1177 78.6472C57.0899 78.6472 56.1389 78.9093 55.2862 79.4401L56.1811 80.8777C56.7526 80.5219 57.391 80.3406 58.1177 80.3406V78.6472ZM55.284 79.4415C54.423 79.981 53.76 80.7643 53.2814 81.7482L54.8042 82.4888C55.1652 81.7466 55.6293 81.2234 56.1832 80.8763L55.284 79.4415ZM53.2798 81.7516C52.7954 82.7589 52.5736 83.9511 52.5736 85.2949H54.267C54.267 84.1296 54.4602 83.2042 54.8059 82.4854L53.2798 81.7516ZM52.5736 85.2949C52.5736 86.6387 52.7954 87.8309 53.2798 88.8382L54.8059 88.1044C54.4602 87.3855 54.267 86.4601 54.267 85.2949H52.5736ZM53.2814 88.8416C53.76 89.8255 54.423 90.6088 55.284 91.1483L56.1832 89.7134C55.6293 89.3663 55.1652 88.8432 54.8042 88.101L53.2814 88.8416ZM55.2862 91.1496C56.1389 91.6805 57.0899 91.9425 58.1177 91.9425V90.2492C57.391 90.2492 56.7526 90.0679 56.1811 89.7121L55.2862 91.1496ZM58.1177 91.9425C59.1455 91.9425 60.0951 91.6805 60.9442 91.1483L60.0451 89.7134C59.4794 90.0679 58.8443 90.2492 58.1177 90.2492V91.9425ZM60.9421 91.1496C61.8093 90.6098 62.4739 89.8251 62.9485 88.8382L61.4224 88.1044C61.0669 88.8436 60.6044 89.3653 60.0472 89.7121L60.9421 91.1496ZM62.9468 88.8416C63.4372 87.8333 63.6617 86.6398 63.6617 85.2949H61.9684C61.9684 86.459 61.7732 87.3831 61.424 88.101L62.9468 88.8416ZM84.7243 82.5783V83.425H85.7342L85.558 82.4306L84.7243 82.5783ZM82.9699 82.5783L82.1406 82.7488L82.2796 83.425H82.9699V82.5783ZM82.4252 81.2484L81.7207 81.718L81.7247 81.724L82.4252 81.2484ZM81.4914 80.2862L80.9933 80.971L81.0034 80.9782L81.4914 80.2862ZM80.2816 79.692L80.0399 80.5034L80.2816 79.692ZM76.511 80.1589L76.0636 79.4401L76.0614 79.4415L76.511 80.1589ZM74.8202 82.1185L74.0588 81.7482L74.0572 81.7516L74.8202 82.1185ZM74.8202 88.4713L74.0572 88.8382L74.0588 88.8416L74.8202 88.4713ZM76.511 90.4309L76.0614 91.1483L76.0636 91.1496L76.511 90.4309ZM80.2816 90.8978L80.0399 90.0863L80.2816 90.8978ZM81.4914 90.3106L81.9835 90.9996L81.9851 90.9984L81.4914 90.3106ZM82.4252 89.3414L81.722 88.8698L81.7207 88.8718L82.4252 89.3414ZM82.9699 88.0114V87.1648H82.2809L82.1409 87.8394L82.9699 88.0114ZM84.7243 88.0114L85.5579 88.1601L85.7354 87.1648H84.7243V88.0114ZM84.0028 89.9993L83.2757 89.5655L84.0028 89.9993ZM82.7011 91.492L83.2226 92.159L83.2263 92.1561L82.7011 91.492ZM80.9537 92.4188L80.6895 91.6144L80.6877 91.615L80.9537 92.4188ZM75.5984 91.8316L75.1484 92.5488L75.5984 91.8316ZM73.3275 89.2565L74.0861 88.8805L73.3275 89.2565ZM73.3275 81.3332L72.569 80.9572L73.3275 81.3332ZM80.9537 78.171L80.6877 78.9748L80.6895 78.9754L80.9537 78.171ZM82.7011 79.1048L82.1758 79.7689L82.1796 79.7718L82.7011 79.1048ZM84.0028 80.5904L83.2757 81.0243L83.2773 81.0269L84.0028 80.5904ZM84.7243 81.7317H82.9699V83.425H84.7243V81.7317ZM83.7992 82.4078C83.6756 81.8066 83.4545 81.2571 83.1256 80.7727L81.7247 81.724C81.9146 82.0037 82.0567 82.3408 82.1406 82.7488L83.7992 82.4078ZM83.1296 80.7787C82.8183 80.3117 82.4341 79.915 81.9793 79.5943L81.0034 80.9782C81.2843 81.1762 81.5227 81.421 81.7207 81.718L83.1296 80.7787ZM81.9893 79.6015C81.5462 79.2792 81.0559 79.0392 80.5233 78.8806L80.0399 80.5034C80.3941 80.6089 80.7102 80.765 80.9934 80.971L81.9893 79.6015ZM80.5233 78.8806C79.9985 78.7242 79.4547 78.6472 78.8951 78.6472V80.3406C79.2976 80.3406 79.6781 80.3957 80.0399 80.5034L80.5233 78.8806ZM78.8951 78.6472C77.8673 78.6472 76.9163 78.9093 76.0636 79.4401L76.9585 80.8777C77.53 80.5219 78.1684 80.3406 78.8951 80.3406V78.6472ZM76.0614 79.4415C75.2004 79.981 74.5374 80.7643 74.0588 81.7482L75.5816 82.4888C75.9426 81.7466 76.4067 81.2234 76.9606 80.8763L76.0614 79.4415ZM74.0572 81.7516C73.5728 82.7589 73.351 83.9511 73.351 85.2949H75.0444C75.0444 84.1296 75.2376 83.2042 75.5833 82.4854L74.0572 81.7516ZM73.351 85.2949C73.351 86.6387 73.5728 87.8309 74.0572 88.8382L75.5833 88.1044C75.2376 87.3855 75.0444 86.4601 75.0444 85.2949H73.351ZM74.0588 88.8416C74.5374 89.8255 75.2004 90.6088 76.0614 91.1483L76.9606 89.7134C76.4067 89.3663 75.9426 88.8432 75.5816 88.101L74.0588 88.8416ZM76.0636 91.1496C76.9163 91.6805 77.8673 91.9425 78.8951 91.9425V90.2492C78.1684 90.2492 77.53 90.0679 76.9585 89.7121L76.0636 91.1496ZM78.8951 91.9425C79.4547 91.9425 79.9985 91.8656 80.5233 91.7092L80.0399 90.0863C79.6781 90.1941 79.2976 90.2492 78.8951 90.2492V91.9425ZM80.5233 91.7092C81.053 91.5514 81.5414 91.3153 81.9835 90.9996L80.9992 89.6216C80.715 89.8247 80.3969 89.98 80.0399 90.0863L80.5233 91.7092ZM81.9851 90.9984C82.437 90.674 82.8192 90.2767 83.1296 89.8111L81.7207 88.8718C81.5218 89.1702 81.2815 89.419 80.9976 89.6228L81.9851 90.9984ZM83.1283 89.813C83.4542 89.3271 83.6751 88.7801 83.7989 88.1835L82.1409 87.8394C82.0572 88.2426 81.9149 88.5823 81.722 88.8698L83.1283 89.813ZM82.9699 88.8581H84.7243V87.1648H82.9699V88.8581ZM83.8908 87.8628C83.7749 88.513 83.5671 89.0772 83.2757 89.5655L84.7298 90.4332C85.1364 89.7518 85.4097 88.9908 85.5579 88.1601L83.8908 87.8628ZM83.2757 89.5655C82.9779 90.0646 82.6115 90.4834 82.1759 90.828L83.2263 92.1561C83.8282 91.6801 84.3297 91.1037 84.7298 90.4332L83.2757 89.5655ZM82.1796 90.825C81.7405 91.1683 81.2457 91.4317 80.6895 91.6144L81.2179 93.2232C81.954 92.9814 82.6241 92.6269 83.2226 92.159L82.1796 90.825ZM80.6877 91.615C80.1389 91.7966 79.5431 91.8904 78.8951 91.8904V93.5838C79.7091 93.5838 80.4857 93.4654 81.2197 93.2226L80.6877 91.615ZM78.8951 91.8904C77.8041 91.8904 76.8639 91.6261 76.0484 91.1144L75.1484 92.5488C76.2572 93.2445 77.5148 93.5838 78.8951 93.5838V91.8904ZM76.0484 91.1144C75.2309 90.6015 74.5752 89.8671 74.0861 88.8805L72.569 89.6326C73.1835 90.8721 74.0417 91.8543 75.1484 92.5488L76.0484 91.1144ZM74.0861 88.8805C73.6041 87.9081 73.3465 86.7219 73.3465 85.2949H71.6532C71.6532 86.924 71.9474 88.3789 72.569 89.6326L74.0861 88.8805ZM73.3465 85.2949C73.3465 83.8678 73.6041 82.6817 74.0861 81.7093L72.569 80.9572C71.9474 82.2109 71.6532 83.6658 71.6532 85.2949H73.3465ZM74.0861 81.7093C74.5752 80.7227 75.2309 79.9883 76.0484 79.4754L75.1484 78.041C74.0417 78.7354 73.1835 79.7177 72.569 80.9572L74.0861 81.7093ZM76.0484 79.4754C76.8639 78.9637 77.8041 78.6993 78.8951 78.6993V77.006C77.5148 77.006 76.2572 77.3453 75.1484 78.041L76.0484 79.4754ZM78.8951 78.6993C79.5431 78.6993 80.1389 78.7932 80.6877 78.9748L81.2197 77.3672C80.4857 77.1243 79.7091 77.006 78.8951 77.006V78.6993ZM80.6895 78.9754C81.2438 79.1574 81.7374 79.4221 82.1759 79.7689L83.2263 78.4408C82.6272 77.9669 81.9559 77.609 81.2179 77.3666L80.6895 78.9754ZM82.1796 79.7718C82.6132 80.1109 82.9784 80.5261 83.2757 81.0243L84.7298 80.1566C84.3291 79.4851 83.8265 78.91 83.2226 78.4378L82.1796 79.7718ZM83.2773 81.0269C83.5669 81.5083 83.7746 82.071 83.8907 82.7261L85.558 82.4306C85.41 81.5953 85.1366 80.8327 84.7282 80.154L83.2773 81.0269ZM87.5594 92.539H86.7127V93.3857H87.5594V92.539ZM87.5594 78.0507V77.2041H86.7127V78.0507H87.5594ZM89.3138 78.0507H90.1605V77.2041H89.3138V78.0507ZM89.3138 84.5026H88.4672V85.3492H89.3138V84.5026ZM97.039 84.5026V85.3492H97.8857V84.5026H97.039ZM97.039 78.0507V77.2041H96.1924V78.0507H97.039ZM98.7935 78.0507H99.6401V77.2041H98.7935V78.0507ZM98.7935 92.539V93.3857H99.6401V92.539H98.7935ZM97.039 92.539H96.1924V93.3857H97.039V92.539ZM97.039 86.0589H97.8857V85.2123H97.039V86.0589ZM89.3138 86.0589V85.2123H88.4672V86.0589H89.3138ZM89.3138 92.539V93.3857H90.1605V92.539H89.3138ZM88.4061 92.539V78.0507H86.7127V92.539H88.4061ZM87.5594 78.8974H89.3138V77.2041H87.5594V78.8974ZM88.4672 78.0507V84.5026H90.1605V78.0507H88.4672ZM89.3138 85.3492H97.039V83.6559H89.3138V85.3492ZM97.8857 84.5026V78.0507H96.1924V84.5026H97.8857ZM97.039 78.8974H98.7935V77.2041H97.039V78.8974ZM97.9468 78.0507V92.539H99.6401V78.0507H97.9468ZM98.7935 91.6924H97.039V93.3857H98.7935V91.6924ZM97.8857 92.539V86.0589H96.1924V92.539H97.8857ZM97.039 85.2123H89.3138V86.9056H97.039V85.2123ZM88.4672 86.0589V92.539H90.1605V86.0589H88.4672ZM89.3138 91.6924H87.5594V93.3857H89.3138V91.6924ZM102.9 92.539V93.3857H103.498L103.698 92.8223L102.9 92.539ZM101.061 92.539L100.266 92.2472L99.848 93.3857H101.061V92.539ZM106.381 78.0507V77.2041H105.79L105.586 77.7589L106.381 78.0507ZM108.192 78.0507L108.987 77.7589L108.783 77.2041H108.192V78.0507ZM113.512 92.539V93.3857H114.725L114.306 92.2472L113.512 92.539ZM111.672 92.539L110.874 92.8223L111.074 93.3857H111.672V92.539ZM107.343 80.3428L108.141 80.0596L107.941 79.4962H107.343V80.3428ZM107.23 80.3428V79.4962H106.632L106.432 80.0596L107.23 80.3428ZM103.579 86.8795V86.0329H102.733V86.8795H103.579ZM110.993 86.8795H111.84V86.0329H110.993V86.8795ZM110.993 88.4359V89.2826H111.84V88.4359H110.993ZM103.579 88.4359H102.733V89.2826H103.579V88.4359ZM102.9 91.6924H101.061V93.3857H102.9V91.6924ZM101.856 92.8309L107.176 78.3426L105.586 77.7589L100.266 92.2472L101.856 92.8309ZM106.381 78.8974H108.192V77.2041H106.381V78.8974ZM107.397 78.3426L112.717 92.8309L114.306 92.2472L108.987 77.7589L107.397 78.3426ZM113.512 91.6924H111.672V93.3857H113.512V91.6924ZM112.47 92.2558L108.141 80.0596L106.545 80.6261L110.874 92.8223L112.47 92.2558ZM107.343 79.4962H107.23V81.1895H107.343V79.4962ZM106.432 80.0596L102.102 92.2558L103.698 92.8223L108.028 80.6261L106.432 80.0596ZM103.579 87.7262H110.993V86.0329H103.579V87.7262ZM110.147 86.8795V88.4359H111.84V86.8795H110.147ZM110.993 87.5892H103.579V89.2826H110.993V87.5892ZM104.426 88.4359V86.8795H102.733V88.4359H104.426ZM113.284 79.6071H112.437V80.4538H113.284V79.6071ZM113.284 78.0507V77.2041H112.437V78.0507H113.284ZM124.15 78.0507H124.996V77.2041H124.15V78.0507ZM124.15 79.6071V80.4538H124.996V79.6071H124.15ZM119.594 79.6071V78.7604H118.747V79.6071H119.594ZM119.594 92.539V93.3857H120.441V92.539H119.594ZM117.839 92.539H116.993V93.3857H117.839V92.539ZM117.839 79.6071H118.686V78.7604H117.839V79.6071ZM114.13 79.6071V78.0507H112.437V79.6071H114.13ZM113.284 78.8974H124.15V77.2041H113.284V78.8974ZM123.303 78.0507V79.6071H124.996V78.0507H123.303ZM124.15 78.7604H119.594V80.4538H124.15V78.7604ZM118.747 79.6071V92.539H120.441V79.6071H118.747ZM119.594 91.6924H117.839V93.3857H119.594V91.6924ZM118.686 92.539V79.6071H116.993V92.539H118.686ZM117.839 78.7604H113.284V80.4538H117.839V78.7604Z" fill="black"/>
</g>
</g>
</svg>
