<svg width="759" height="800" viewBox="0 0 759 800" fill="none" xmlns="http://www.w3.org/2000/svg">
<rect width="758" height="800" fill="white"/>
<path d="M728.5 653.6C709.636 608.917 682.261 568.33 647.9 534.1C613.643 499.771 573.063 472.4 528.4 453.5C528 453.3 527.6 453.2 527.2 453C589.5 408 630 334.7 630 252C630 115 519 4 382 4C245 4 134 115 134 252C134 334.7 174.5 408 236.8 453.1C236.4 453.3 236 453.4 235.6 453.6C190.8 472.5 150.6 499.6 116.1 534.2C81.771 568.457 54.4005 609.037 35.5001 653.7C16.9323 697.425 6.91825 744.305 6.00006 791.8C5.97337 792.867 6.16057 793.929 6.55064 794.923C6.94071 795.917 7.52576 796.822 8.2713 797.587C9.01684 798.351 9.9078 798.958 10.8917 799.372C11.8756 799.787 12.9324 800 14.0001 800H74.0001C78.4001 800 81.9001 796.5 82.0001 792.2C84.0001 715 115 642.7 169.8 587.9C226.5 531.2 301.8 500 382 500C462.2 500 537.5 531.2 594.2 587.9C649 642.7 680 715 682 792.2C682.1 796.6 685.6 800 690 800H750C751.068 800 752.125 799.787 753.108 799.372C754.092 798.958 754.983 798.351 755.729 797.587C756.474 796.822 757.059 795.917 757.449 794.923C757.84 793.929 758.027 792.867 758 791.8C757 744 747.1 697.5 728.5 653.6V653.6ZM382 424C336.1 424 292.9 406.1 260.4 373.6C227.9 341.1 210 297.9 210 252C210 206.1 227.9 162.9 260.4 130.4C292.9 97.9 336.1 80 382 80C427.9 80 471.1 97.9 503.6 130.4C536.1 162.9 554 206.1 554 252C554 297.9 536.1 341.1 503.6 373.6C471.1 406.1 427.9 424 382 424Z" fill="#797979"/>
</svg>
